<svg viewBox="0 0 70 200" xmlns="http://www.w3.org/2000/svg" xmlns:xlink="http://www.w3.org/1999/xlink">
<g id="toggle">
	<g id="pedestal">
		<radialGradient id="pedestal-grad" cx="35" cy="84.224" r="19.5" gradientUnits="userSpaceOnUse">
			<stop offset="3.938295e-02" style="stop-color:#5B5B5B"/>
			<stop offset="0.7688" style="stop-color:#2A2A2A"/>
			<stop offset="0.9167" style="stop-color:#0B0B0B"/>
			<stop offset="1" style="stop-color:#000000"/>
		</radialGradient>
		<circle fill="url(#pedestal-grad)" cx="35" cy="84.2" r="19.5"/>
	</g>

	<g id="handle">
		<linearGradient id="grad-1" gradientUnits="userSpaceOnUse" x1="16.5" y1="77.0168" x2="53.5" y2="77.0168">
			<stop offset="0" style="stop-color:#999999"/>
			<stop offset="0.2946" style="stop-color:#767676"/>
			<stop offset="0.6005" style="stop-color:#585858"/>
			<stop offset="0.7736" style="stop-color:#4D4D4D"/>
			<stop offset="1" style="stop-color:#808080"/>
		</linearGradient>
		<path fill="url(#grad-1)" d="M35,70c-11.7-0.3-18.5-10-18.5-10l4,25c0,0,4,9,14.5,9c10.5,0,14.5-9,14.5-9l4-25 C53.5,60,46.7,69.7,35,70z"/>

		<linearGradient id="grad-2" gradientUnits="userSpaceOnUse" x1="-5.9541" y1="86.8789" x2="-5.4541" y2="86.8789">
			<stop offset="0" style="stop-color:#FFFFFF"/>
			<stop offset="0.5607" style="stop-color:#000000"/>
			<stop offset="1" style="stop-color:#2A1F1C"/>
		</linearGradient>
		<path id="shadow2" opacity="0.1" fill="url(#grad-2)" d="M35.1,87.6c-3.6,0.1-8.6-1.9-15.4-7.9l0.8,5.3c0,0,4,9,14.5,9 l0.1-0.3l0.1,0.3c10.5,0,14.5-9,14.5-9l0.8-5.3C44.5,84.7,39.5,87.7,35.1,87.6z"/>
		<path id="shadow1" fill="#5B5B5B" d="M35.5,69.7c-5.8,0-10.2-1.4-14.8-4.2c0,0,5.8,4.2,14.8,6.2c9-2,14.8-6.2,14.8-6.2 C45.7,68.3,41.3,69.7,35.5,69.7z"/>
	</g>

	<g id="ball">
		<circle fill="#93938F" cx="35" cy="40" r="30"/>

		<radialGradient id="grad-3" cx="35" cy="40" r="30" gradientUnits="userSpaceOnUse">
			<stop offset="0.3177" style="stop-color:#F7F6F6;stop-opacity:0"/>
			<stop offset="0.5935" style="stop-color:#F5F4F4;stop-opacity:0.4043"/>
			<stop offset="0.6929" style="stop-color:#EEEDED;stop-opacity:0.5499"/>
			<stop offset="0.7637" style="stop-color:#E3E2E2;stop-opacity:0.6537"/>
			<stop offset="0.821" style="stop-color:#D2D1D1;stop-opacity:0.7376"/>
			<stop offset="0.8701" style="stop-color:#BCBBBB;stop-opacity:0.8096"/>
			<stop offset="0.9135" style="stop-color:#A0A0A0;stop-opacity:0.8732"/>
			<stop offset="0.9528" style="stop-color:#808080;stop-opacity:0.9308"/>
			<stop offset="0.9877" style="stop-color:#5C5C5C;stop-opacity:0.982"/>
			<stop offset="1" style="stop-color:#4D4D4D"/>
		</radialGradient>
		<path fill="url(#grad-3)" d="M35,12c15.4,0,28,12.6,28,28S50.4,68,35,68S7,55.4,7,40S19.6,12,35,12M35,10C18.4,10,5,23.4,5,40 s13.4,30,30,30s30-13.4,30-30S51.6,10,35,10L35,10z"/>

		<circle opacity="0.61" fill="#879099" cx="35.5" cy="40.2" r="23.5"/>

		<radialGradient id="grad-4" cx="31.5" cy="32.224" r="16.5" gradientUnits="userSpaceOnUse">
			<stop offset="0" style="stop-color:#FFFFFF"/>
			<stop offset="1" style="stop-color:#FFFFFF;stop-opacity:0"/>
		</radialGradient>
		<circle opacity="0.46" fill="url(#grad-4)" cx="31.5" cy="32.2" r="16.5"/>

		<path opacity="0.49" fill="#FFFFFF" d="M18.2,28.6c1.5-2.7,4.8-4.8,4.8-4.8c4.4-1.7,5.8-2.3,5.8-2.3l2.2,5.7c0,0-5.8,2.3-7.5,4.4 c-1.7,2.1-3.1,2.7-3.1,2.7L18.2,28.6z"/>
	</g>
</g>
</svg>
