<svg viewBox="0 0 512 512" xmlns="http://www.w3.org/2000/svg" xmlns:xlink="http://www.w3.org/1999/xlink">
<path style="fill:#82889d" d="M512 361.931H0V158.897c0-14.626 11.857-26.483 26.483-26.483h459.034c14.626 0 26.483 11.857 26.483 26.483v203.034z"/><path style="fill:#707487" d="M450.207 247.172h-79.448a8.829 8.829 0 0 1-8.828-8.828v-35.31a8.829 8.829 0 0 1 8.828-8.828h79.448a8.829 8.829 0 0 1 8.828 8.828v35.31a8.829 8.829 0 0 1-8.828 8.828zM203.034 247.172H70.621a8.829 8.829 0 0 1-8.828-8.828v-35.31a8.829 8.829 0 0 1 8.828-8.828h132.414a8.829 8.829 0 0 1 8.828 8.828v35.31a8.829 8.829 0 0 1-8.829 8.828z"/><path style="fill:#5b5d6e" d="M0 282.483v88.276a8.829 8.829 0 0 0 8.828 8.828h29.855c3.343 0 6.4-1.889 7.895-4.879l6.388-12.776h406.069l6.388 12.776a8.827 8.827 0 0 0 7.895 4.879h29.855a8.829 8.829 0 0 0 8.828-8.828v-88.276H0z"/><path style="fill:#464655" d="M441.379 344.276H70.621a8.829 8.829 0 0 1-8.828-8.828v-61.793a8.829 8.829 0 0 1 8.828-8.828H441.38a8.829 8.829 0 0 1 8.828 8.828v61.793a8.83 8.83 0 0 1-8.829 8.828z"/><circle style="fill:#ff6464" cx="392.828" cy="220.69" r="13.241"/><circle style="fill:#fff" cx="428.138" cy="220.69" r="13.241"/><path style="fill:#707487" d="M441.379 291.31H70.621a8.829 8.829 0 0 1-8.828-8.828v-8.828a8.829 8.829 0 0 1 8.828-8.828H441.38a8.829 8.829 0 0 1 8.828 8.828v8.828a8.83 8.83 0 0 1-8.829 8.828z"/><path style="fill:#82889d" d="M397.241 423.724H114.759c-9.751 0-17.655-7.904-17.655-17.655V291.31h317.793v114.759c0 9.751-7.904 17.655-17.656 17.655z"/><path style="fill:#eff2fa" d="M388.414 406.069H123.586a8.829 8.829 0 0 1-8.828-8.828V291.31h282.483v105.931a8.828 8.828 0 0 1-8.827 8.828z"/><path style="fill:#82889d" d="m88.276 132.414 30.009-37.512a17.651 17.651 0 0 1 13.786-6.626h44.48a8.829 8.829 0 0 1 8.828 8.828v35.31H88.276zM423.724 132.414l-30.009-37.512a17.651 17.651 0 0 0-13.786-6.626h-44.48a8.829 8.829 0 0 0-8.828 8.828v35.31h97.103z"/><path style="fill:#707487" d="M185.379 132.414h-17.655V88.276h8.828a8.829 8.829 0 0 1 8.828 8.828v35.31zM326.621 132.414h17.655V88.276h-8.828a8.829 8.829 0 0 0-8.828 8.828v35.31z"/><path style="fill:#c7cfe2" d="M97.103 229.517h-8.828a8.829 8.829 0 0 1 0-17.656h8.828a8.828 8.828 0 0 1 0 17.656zM141.241 229.517h-8.828a8.829 8.829 0 0 1 0-17.656h8.828a8.828 8.828 0 0 1 0 17.656zM185.379 229.517h-8.828a8.829 8.829 0 0 1 0-17.656h8.828a8.828 8.828 0 0 1 0 17.656z"/><path style="fill:#5b5d6e" d="M485.517 132.414H26.483C11.857 132.414 0 144.27 0 158.897v17.655h512v-17.655c0-14.627-11.857-26.483-26.483-26.483z"/>
</svg>