<svg xmlns="http://www.w3.org/2000/svg" viewBox="0 0 120 120" xml:space="preserve"><g fill="#298E43" stroke="#127F14" stroke-miterlimit="10"><path d="m52.6 73.1-12 7.4-1.8 1.1c.1-.2.3-.5.4-.7l1-1.3 4.2-5.6 4.2-5.6c.7-.9 1.4-1.9 2.1-2.8.2-1.3.4-2.6.5-4-1.4.4-2.6 1-3.7 1.6-.7 1-1.4 1.9-2.1 2.8l-3.9 5.3V71c-.3-2.7-.9-4.9-1.4-7.2l-.3-1c.5-.3 1.1-.6 1.6-1l1.9-1.6c2.6-2.1 5.1-4.3 7.9-6.2-3.3.7-6.6 2-9.7 3.3-.8.3-1.6.7-2.3 1-.3.1-.5.3-.7.5L40 57c1.6-1.9 3.1-3.6 4.8-5.3l1.3-1.3c.2-.2.4-.5.7-.8.1-.1.2-.2.2-.3.1-.1.1-.1.2-.3.1-.2.2-.4.2-.6 0 0 .1-.5 0-.8-.1-.4-.2-.7-.4-1-.2-.2-.5-.5-.8-.6-.2-.1-.3-.1-.5-.2h-1.1c-.6.1-.8.2-1.2.3l-.9.3-1.7.5c-.6.2-1.2.3-1.7.4-.6.2-1.1.4-1.7.6-1.1.4-2.2.8-3.4 1.2-1.5.5-3 .9-4.6 1.3.6-1.2 1.2-2.5 1.8-3.7 2.6-5.3 5-10.7 7.3-16.1.6-1.4 1.2-2.9 1.7-4.3 3.3 2.2 6.6 4.2 9.9 6.2 1.7 1 3.3 2.1 4.8 3.2s2.7 2.3 3.1 3.5c.1.3.2.6.2.9.1.2 0 .9 0 1.3v3c.6 2 1.2 3.9 2 5.9.8-2 1.4-3.9 2-5.9v-3c0-.5 0-.9-.1-1.6 0-.7-.2-1.3-.4-2-1-2.6-2.8-4.1-4.5-5.3-1.7-1.3-3.4-2.4-5.1-3.4-3.4-2.1-6.7-4.1-10-6.2-.2-.1-.3-.2-.5-.3 0 0 0-.1.1-.1.5-3 1.1-6 .7-9.1-1.2 2.5-2.7 4.7-4.1 7-.3-.2-.7-.5-1-.7-1.9-.6-3.8-1.3-5.9-1.9 1.1 1.8 2.3 3.5 3.6 5.2.6.4 1.2.8 1.7 1.2-.7 1.7-1.4 3.3-2.1 5-2.3 5.4-4.7 10.7-7.2 16-2.5 5.3-5.2 10.5-8 15.6-1.4 2.5-2.9 5-4.4 7.4-.5 1.4-1.1 2.7-1.7 4-.6 1.3-1.2 2.6-2.3 3.7 1.5-.4 2.8-1.4 4-2.4 1.2-1 2.3-2.1 3.4-3.2 1.7-2.5 3.1-5.1 4.6-7.7 2.1-3.7 4-7.4 5.8-11.2 1.8.2 3.6.4 5.4.4h.9v4.4c-2.4 2.9-4.8 5.8-7.3 8.6-.4-.2-.7-.4-1.1-.5-.2.8-.3 1.5-.4 2.2-.4.4-.7.8-1.1 1.2-3.1 2.2-6.3 4.4-9.4 6.6L10 78.4l7.5-.9c.9-.1 1.9-.2 2.5-.6.4-.2.7-.3 1-.5l.9-.6c.6-.4 1.1-.8 1.6-1.2.5-.4 1-.8 1.5-1.3 1.1-1 2.1-2 3.1-3l2.1 4.2c.8 1.6 1.6 3.2 2.1 4.8.2.8.4 1.5.4 2.2.2.2.4.4.5.6l-.5.5c-1.5 1.6-3.2 3.2-5 4.6-3.6 2.9-7.5 5.6-11.4 8l2.1 3.5L42.7 84l12-7.5c3.7-3 7.4-6.1 10.8-9.4l-12.9 6zM38.5 51.3c.4 0 .7-.1 1.1-.1-.9 1-1.7 2-2.6 2.9l-.9-2.8c.8.1 1.6.1 2.4 0zm-6.9 16.8c1.2-.8 2.3-1.6 3.5-2.4l1.1-.7c.5 2.2 1 4.4 1.2 6.3.1 1 0 1.9-.2 3-.2 1-.5 2.3-.8 3.2-.1.2-.1.3-.2.5-.6-1.9-1.4-3.5-2.2-5.2l-2.4-4.7zM109.9 40.8c0-.7-.4-1.6-.7-2.3-.7-1.4-1.8-2.6-3-3.4-2.3-1.7-4.8-2.6-7.3-3.3-.6-.2-1.2-.3-1.9-.4-.6-.1-1.2-.3-1.9-.4-1.3-.1-2.5-.1-3.8-.1-3.9.1-7.7.7-11.4 1.5.1-.2.2-.5.3-.7 1.7-4.7 3.1-9.5 3.8-14.5l.3-1.9.1-1.9c0-1.3.3-2.5.1-3.8-.4-1.3-.7-2.5-1.2-3.7-.6-1.2-1.2-2.3-1.8-3.4-.1 1.3-.3 2.5-.4 3.7-.1 1.2-.5 2.4-.7 3.5.1 1.1 0 2.3-.1 3.5l-.1 1.7-.3 1.7c-.6 4.6-2 9.2-3.6 13.7s-3.5 8.9-5.7 13.2c-1.1 2.2-2.2 4.3-3.3 6.4l-1.9 7.3c2-1.6 3.7-3.5 5.5-5.3 1.2-2.2 2.3-4.3 3.4-6.6 2-3.9 3.7-8 5.2-12.1 3.9.1 7.8.4 11.5 1 1.2.2 2.3.5 3.4.7 1.1.2 2.3.3 3.4.6 2.2.6 4.3 1.4 5.9 2.6.8.6 1.4 1.3 1.8 2 .1.4.3.7.3 1.1.1.4.1 1 .1 1.6 0 2.3-.2 4.7-.4 7-.4 4.8-1 9.5-1.8 14.2-1.5 9.5-3.4 18.9-6.3 27.9-.8 2.2-1.6 4.5-2.5 6.5-1 2.1-2.1 4.1-3.5 5.5-.6.6-1.7 1.4-2.6 2.1l-2.9 2.2-4 3.1c-.7-1.1-1.5-2.2-2.2-3.3-1.3-1.6-2.6-3.1-4-4.7-2.7-3.1-5.4-6.1-8.1-9.2 1.9 3.6 3.8 7.3 5.7 10.8 1 1.8 1.9 3.6 3 5.3 1.2 1.6 2.3 3.3 3.5 5L81 117l1.7-1.3 5.7-4.5 2.9-2.2c1-.8 1.8-1.4 3-2.5 2-2.1 3.1-4.4 4.2-6.7s1.9-4.6 2.7-7c3.1-9.4 4.9-19 6.5-28.6.7-4.8 1.4-9.6 1.8-14.5.2-2.4.4-4.9.4-7.4.1-.1.1-.7 0-1.5z"/><path d="M73.8 63.1c1.9-.1 3.9-.2 5.8-.2s3.9 0 5.8.1c1 .1 1.9.1 2.9.2 1-.5 2-1 3.1-1.6-.8-1-1.8-1.7-2.7-2.4-1-.1-2-.2-3-.2-2-.1-4-.1-6-.1s-4 .1-6 .2c-1 0-2 .2-3 .2-.9.7-1.9 1.4-2.8 2.3 1.1.7 2.1 1.2 3.1 1.8.9-.2 1.9-.3 2.8-.3zM75.3 74.6c3-1 6.1-2 9.1-3.1 3-1.2 6-2.3 8.9-3.7 1.5-.7 2.9-1.5 4.4-2.3 1.1-1.4 2.3-2.8 2.7-4.6-1.6.6-3.2.9-4.8 1.1-1.3.8-2.7 1.5-4 2.1-2.8 1.3-5.7 2.5-8.6 3.6-2.9 1.1-5.9 2.1-8.9 3.1-1.5.5-3 1-4.5 1.4-1.3 1-2.7 2-4 3.3 1.8.4 3.4.5 5.1.6l4.6-1.5z"/></g></svg>